<svg xmlns="http://www.w3.org/2000/svg" viewBox="0 0 716 415">
  <path fill="#F20707" fill-rule="evenodd" d="M 623,368 L 618,370 L 614,373 L 597,380 L 580,385 L 564,388 L 555,388 L 548,390 L 526,392 L 462,392 L 423,389 L 405,387 L 397,385 L 388,385 L 380,384 L 364,381 L 348,379 L 339,379 L 331,377 L 320,377 L 311,375 L 269,372 L 214,372 L 190,374 L 181,376 L 172,376 L 148,380 L 140,382 L 132,385 L 128,385 L 116,389 L 111,392 L 109,392 L 107,393 L 106,395 L 109,394 L 114,391 L 124,388 L 146,383 L 164,380 L 193,378 L 224,378 L 270,381 L 280,383 L 290,383 L 316,386 L 323,388 L 374,395 L 382,395 L 390,397 L 417,400 L 431,401 L 445,401 L 459,403 L 519,403 L 535,402 L 553,400 L 559,398 L 565,398 L 583,393 L 591,390 L 610,380 L 620,372 Z M 530,331 L 528,330 L 521,330 L 514,335 L 509,342 L 507,347 L 507,352 L 510,356 L 512,357 L 518,357 L 525,353 L 529,348 L 533,338 L 533,336 Z M 526,333 L 528,335 L 522,350 L 519,353 L 517,354 L 514,353 L 514,347 L 517,339 L 521,334 L 523,333 Z M 511,330 L 507,330 L 504,332 L 502,335 L 501,330 L 496,330 L 494,331 L 495,334 L 493,337 L 487,353 L 488,357 L 494,356 L 495,351 L 499,342 L 504,336 L 506,336 L 507,338 L 509,338 L 512,334 Z M 487,331 L 485,330 L 475,330 L 472,331 L 469,333 L 463,339 L 459,348 L 459,351 L 460,354 L 464,357 L 469,356 L 471,355 L 474,352 L 475,354 L 473,356 L 469,366 L 460,375 L 458,374 L 457,369 L 458,367 L 463,362 L 456,362 L 452,366 L 451,368 L 451,375 L 454,378 L 463,378 L 469,375 L 474,370 L 477,365 L 481,356 L 481,353 L 486,342 L 488,336 Z M 480,333 L 482,335 L 480,337 L 479,341 L 475,348 L 471,352 L 467,352 L 467,346 L 472,337 L 474,335 Z M 212,355 L 214,357 L 221,357 L 226,354 L 229,357 L 234,357 L 234,354 L 235,351 L 239,344 L 248,335 L 252,336 L 249,340 L 245,349 L 245,354 L 248,357 L 254,357 L 256,356 L 261,352 L 264,347 L 262,347 L 257,353 L 253,353 L 253,348 L 258,338 L 259,335 L 259,332 L 257,330 L 251,330 L 248,331 L 243,336 L 241,330 L 237,330 L 235,331 L 235,335 L 230,346 L 228,349 L 223,354 L 221,354 L 219,351 L 221,348 L 221,346 L 224,341 L 226,336 L 225,330 L 218,332 L 218,336 L 213,345 L 212,348 Z M 213,331 L 210,329 L 200,333 L 201,330 L 194,331 L 193,336 L 188,347 L 183,353 L 180,354 L 179,350 L 180,345 L 183,340 L 185,335 L 184,330 L 178,331 L 172,347 L 167,353 L 164,354 L 162,352 L 162,350 L 163,349 L 163,346 L 167,338 L 168,330 L 162,330 L 160,332 L 160,335 L 157,341 L 155,347 L 155,354 L 156,356 L 158,357 L 164,357 L 170,353 L 174,357 L 180,357 L 183,355 L 185,355 L 187,357 L 193,356 L 195,348 L 197,344 L 201,339 L 201,338 L 202,337 L 207,336 L 207,340 L 210,340 L 213,337 Z M 233,309 L 228,309 L 226,310 L 223,315 L 223,319 L 225,321 L 228,322 L 230,321 L 235,316 L 235,311 Z M 634,301 L 632,300 L 630,300 L 627,301 L 624,304 L 618,318 L 617,323 L 615,328 L 613,330 L 605,330 L 601,332 L 594,339 L 592,343 L 591,348 L 589,351 L 584,353 L 583,351 L 584,347 L 587,342 L 589,337 L 588,330 L 583,330 L 579,332 L 575,336 L 575,333 L 574,330 L 570,330 L 568,332 L 567,337 L 561,350 L 557,354 L 554,353 L 554,350 L 562,331 L 554,331 L 554,334 L 547,349 L 543,353 L 541,354 L 539,351 L 541,346 L 543,344 L 547,333 L 547,330 L 540,331 L 540,333 L 538,338 L 534,345 L 532,351 L 533,356 L 535,357 L 541,357 L 547,353 L 550,357 L 556,357 L 560,355 L 562,357 L 567,356 L 568,351 L 572,343 L 578,336 L 583,336 L 579,342 L 579,344 L 577,346 L 576,349 L 577,356 L 579,357 L 584,357 L 587,356 L 590,353 L 594,357 L 600,357 L 606,353 L 609,357 L 614,357 L 618,355 L 621,352 L 624,347 L 621,347 L 619,351 L 615,354 L 614,348 L 623,325 L 631,309 L 631,307 Z M 612,334 L 612,337 L 605,350 L 601,353 L 598,352 L 598,347 L 599,344 L 603,337 L 605,335 L 609,333 Z M 462,330 L 458,330 L 454,335 L 454,331 L 446,331 L 446,336 L 440,347 L 434,352 L 430,354 L 428,354 L 425,351 L 426,345 L 430,345 L 435,343 L 439,339 L 440,337 L 439,331 L 437,330 L 431,330 L 427,332 L 422,337 L 417,349 L 413,353 L 410,352 L 411,347 L 420,325 L 422,323 L 426,312 L 432,301 L 428,301 L 427,300 L 423,301 L 420,307 L 418,314 L 414,321 L 412,328 L 410,330 L 401,330 L 396,333 L 392,337 L 387,349 L 382,354 L 380,352 L 380,349 L 381,346 L 386,337 L 386,331 L 384,330 L 379,330 L 376,331 L 371,335 L 369,330 L 365,330 L 363,332 L 360,342 L 354,354 L 354,356 L 356,357 L 360,357 L 362,355 L 363,351 L 369,341 L 375,335 L 379,336 L 373,347 L 372,350 L 372,354 L 375,357 L 381,357 L 383,356 L 387,352 L 390,356 L 392,357 L 397,357 L 403,353 L 404,355 L 407,357 L 410,357 L 413,356 L 418,353 L 421,356 L 423,357 L 430,357 L 439,354 L 440,357 L 446,356 L 446,353 L 449,345 L 452,340 L 456,336 L 458,336 L 459,338 L 462,337 L 463,335 Z M 435,334 L 435,336 L 434,338 L 431,341 L 427,341 L 427,339 L 428,337 L 432,333 Z M 409,334 L 408,339 L 402,350 L 399,353 L 395,352 L 395,347 L 399,338 L 403,334 L 405,333 Z M 319,288 L 310,293 L 306,296 L 296,306 L 292,314 L 292,323 L 293,325 L 296,328 L 298,329 L 306,329 L 308,327 L 305,327 L 303,326 L 300,321 L 300,317 L 301,314 L 304,309 L 316,297 L 327,291 L 331,290 L 336,291 L 337,293 L 337,296 L 335,302 L 332,308 L 327,316 L 321,323 L 309,342 L 305,351 L 305,357 L 306,359 L 310,362 L 319,362 L 322,361 L 329,357 L 335,351 L 336,351 L 339,348 L 340,351 L 339,361 L 342,366 L 346,368 L 350,368 L 354,365 L 350,365 L 347,362 L 347,354 L 349,347 L 359,325 L 370,305 L 375,297 L 377,295 L 370,295 L 363,302 L 349,326 L 336,345 L 325,356 L 320,359 L 318,359 L 315,355 L 316,352 L 319,346 L 325,337 L 332,328 L 340,315 L 344,306 L 346,299 L 346,291 L 341,286 L 337,285 L 332,285 L 331,286 L 325,286 Z M 204,287 L 176,288 L 146,284 L 126,284 L 117,286 L 107,291 L 104,293 L 97,300 L 95,303 L 92,309 L 91,316 L 92,321 L 94,325 L 98,329 L 104,332 L 123,332 L 131,328 L 136,323 L 137,321 L 137,318 L 134,318 L 132,322 L 128,325 L 120,328 L 115,328 L 109,326 L 103,320 L 102,316 L 103,311 L 107,304 L 114,297 L 123,292 L 130,290 L 141,290 L 155,292 L 159,295 L 156,299 L 150,311 L 146,322 L 137,340 L 132,348 L 123,357 L 120,359 L 115,361 L 107,361 L 103,360 L 100,357 L 99,354 L 101,350 L 97,347 L 93,349 L 91,351 L 91,358 L 92,360 L 97,365 L 103,367 L 118,367 L 124,365 L 132,361 L 136,358 L 144,350 L 149,342 L 156,326 L 157,321 L 168,297 L 170,295 L 191,296 L 198,294 L 200,292 L 203,291 L 204,289 Z M 237,158 L 231,152 L 225,148 L 216,143 L 205,138 L 201,137 L 181,136 L 175,137 L 165,143 L 160,143 L 157,141 L 154,141 L 151,142 L 141,149 L 138,148 L 133,148 L 128,152 L 125,153 L 122,155 L 118,154 L 114,157 L 108,164 L 132,164 L 164,162 L 196,162 L 197,161 L 213,160 L 215,159 L 217,161 L 221,162 L 227,162 L 232,164 L 236,163 L 237,161 Z M 149,152 L 151,152 L 152,155 L 150,157 L 147,156 L 147,154 Z M 167,153 L 169,151 L 171,153 Z M 203,148 L 205,146 L 212,146 L 213,150 L 210,151 Z M 189,147 L 189,145 L 191,143 L 197,143 L 199,145 L 195,148 Z M 174,144 L 176,143 L 182,146 L 178,148 L 175,148 Z M 692,284 L 688,284 L 687,283 L 643,279 L 630,279 L 614,277 L 612,275 L 613,268 L 610,263 L 599,248 L 596,236 L 608,237 L 609,234 L 608,231 L 606,229 L 595,228 L 493,229 L 491,228 L 491,223 L 575,223 L 575,214 L 554,214 L 548,215 L 547,216 L 535,215 L 532,214 L 524,210 L 514,200 L 509,190 L 508,185 L 508,168 L 512,156 L 519,147 L 524,143 L 532,140 L 539,141 L 534,143 L 528,147 L 521,154 L 517,162 L 515,170 L 515,182 L 516,187 L 518,193 L 521,199 L 528,206 L 531,208 L 538,211 L 552,211 L 559,208 L 562,206 L 567,201 L 571,192 L 573,185 L 573,172 L 571,164 L 568,158 L 563,151 L 560,148 L 554,144 L 553,144 L 553,141 L 558,139 L 563,134 L 565,130 L 565,120 L 564,117 L 561,113 L 560,113 L 558,111 L 556,111 L 554,109 L 557,103 L 555,102 L 546,102 L 541,104 L 545,106 L 545,108 L 540,112 L 537,113 L 534,118 L 534,129 L 536,132 L 533,134 L 527,134 L 524,130 L 523,127 L 523,116 L 526,99 L 528,93 L 531,87 L 536,81 L 538,76 L 536,74 L 531,71 L 523,69 L 502,69 L 494,70 L 487,72 L 483,74 L 481,76 L 481,78 L 487,86 L 491,95 L 494,111 L 495,128 L 494,129 L 494,132 L 492,134 L 486,134 L 484,136 L 484,141 L 481,144 L 479,142 L 477,142 L 475,141 L 472,138 L 475,133 L 476,128 L 476,117 L 473,114 L 471,113 L 461,111 L 458,107 L 460,105 L 460,103 L 458,102 L 455,102 L 450,104 L 449,106 L 450,110 L 448,112 L 446,113 L 442,113 L 438,115 L 438,121 L 441,130 L 442,136 L 441,143 L 439,144 L 429,144 L 422,147 L 417,151 L 411,157 L 425,157 L 426,156 L 445,156 L 449,153 L 451,149 L 455,145 L 459,143 L 462,144 L 457,149 L 452,156 L 454,156 L 455,155 L 476,155 L 479,154 L 485,147 L 486,147 L 489,144 L 496,140 L 504,138 L 512,138 L 521,140 L 515,142 L 504,142 L 501,143 L 492,148 L 488,152 L 485,156 L 481,165 L 480,170 L 479,187 L 475,186 L 474,184 L 473,179 L 473,172 L 474,166 L 475,163 L 477,160 L 477,158 L 463,160 L 450,160 L 448,162 L 445,170 L 444,174 L 444,184 L 441,186 L 439,184 L 439,170 L 443,161 L 425,161 L 424,162 L 407,162 L 404,167 L 401,177 L 401,187 L 399,189 L 396,185 L 396,175 L 399,166 L 401,164 L 401,162 L 362,164 L 359,168 L 358,171 L 358,175 L 357,176 L 357,179 L 380,182 L 373,183 L 357,183 L 357,189 L 353,190 L 352,188 L 352,176 L 354,166 L 358,159 L 363,154 L 360,154 L 359,155 L 354,155 L 347,156 L 341,159 L 334,166 L 332,170 L 332,174 L 330,179 L 328,177 L 328,169 L 329,166 L 332,161 L 338,156 L 346,152 L 359,150 L 369,150 L 371,152 L 365,157 L 364,160 L 402,158 L 405,157 L 412,149 L 416,146 L 420,144 L 419,137 L 420,122 L 416,117 L 411,115 L 406,115 L 403,113 L 405,109 L 404,106 L 402,105 L 397,104 L 392,107 L 393,113 L 388,116 L 385,116 L 382,117 L 376,123 L 376,129 L 378,135 L 377,149 L 366,148 L 364,147 L 362,143 L 362,141 L 368,135 L 369,132 L 368,130 L 365,129 L 354,122 L 344,118 L 332,116 L 297,116 L 268,119 L 255,121 L 225,129 L 221,131 L 221,133 L 246,132 L 262,130 L 282,130 L 289,129 L 294,127 L 302,122 L 305,121 L 312,122 L 310,124 L 305,125 L 301,127 L 295,132 L 289,135 L 258,137 L 238,137 L 237,138 L 230,138 L 239,142 L 241,144 L 240,203 L 238,201 L 237,190 L 237,173 L 235,168 L 225,166 L 216,166 L 216,187 L 217,188 L 217,210 L 215,218 L 212,215 L 212,166 L 201,166 L 175,168 L 111,170 L 107,169 L 88,170 L 89,199 L 91,222 L 250,221 L 252,222 L 253,225 L 251,227 L 79,227 L 79,230 L 80,231 L 80,234 L 87,234 L 88,235 L 102,237 L 101,250 L 103,256 L 112,256 L 108,253 L 106,248 L 106,243 L 107,242 L 108,235 L 111,236 L 110,244 L 112,250 L 114,251 L 120,251 L 124,247 L 127,241 L 129,234 L 132,235 L 132,238 L 130,245 L 127,252 L 121,258 L 116,260 L 110,259 L 79,260 L 71,261 L 70,262 L 66,262 L 68,262 L 69,263 L 83,263 L 84,264 L 99,265 L 121,265 L 139,267 L 158,267 L 175,269 L 194,270 L 214,270 L 234,272 L 254,273 L 276,273 L 299,274 L 334,277 L 407,281 L 428,281 L 483,285 L 508,286 L 532,286 L 554,288 L 567,288 L 580,287 L 589,285 L 598,284 L 665,285 L 666,284 Z M 437,269 L 441,264 L 462,265 L 467,268 L 468,272 L 456,272 L 444,271 Z M 415,262 L 415,266 L 414,268 L 410,270 L 407,268 L 411,264 L 411,263 Z M 367,261 L 367,265 L 364,269 L 362,270 L 357,270 L 355,268 L 362,261 L 364,260 Z M 318,259 L 319,265 L 316,268 L 311,268 L 308,266 L 314,259 L 316,258 Z M 235,261 L 238,255 L 241,253 L 253,253 L 260,254 L 264,256 L 269,261 L 269,263 L 267,265 L 235,264 Z M 425,251 L 431,251 L 433,252 L 436,255 L 437,257 L 437,264 L 434,267 L 432,267 L 430,269 L 427,269 L 425,268 L 422,265 L 421,263 L 421,255 Z M 463,253 L 466,250 L 468,249 L 474,249 L 476,250 L 480,254 L 480,261 L 478,263 L 474,265 L 469,265 L 466,264 L 463,261 L 462,258 Z M 369,255 L 369,249 L 372,248 L 375,251 L 376,255 L 380,259 L 383,261 L 387,262 L 393,262 L 396,261 L 400,258 L 402,255 L 404,250 L 410,250 L 409,254 L 406,260 L 400,266 L 397,268 L 394,269 L 385,269 L 378,266 L 371,259 Z M 319,252 L 321,248 L 323,248 L 325,250 L 326,252 L 326,254 L 331,259 L 336,261 L 343,261 L 346,260 L 349,258 L 351,256 L 355,249 L 358,248 L 360,250 L 357,258 L 350,265 L 343,268 L 335,268 L 328,265 L 322,259 Z M 477,243 L 483,243 L 487,245 L 490,248 L 492,254 L 492,260 L 490,265 L 484,271 L 482,272 L 476,272 L 474,269 L 476,267 L 481,266 L 486,261 L 486,253 L 482,248 L 478,247 Z M 584,238 L 587,237 L 589,239 L 592,244 L 595,251 L 604,264 L 607,270 L 603,271 L 600,269 Z M 497,272 L 500,269 L 505,268 L 505,254 L 503,243 L 503,239 L 505,237 L 508,237 L 510,239 L 513,252 L 513,259 L 514,266 L 516,268 L 521,268 L 521,263 L 520,262 L 519,255 L 519,247 L 518,237 L 525,238 L 526,241 L 526,246 L 528,251 L 530,266 L 533,269 L 537,269 L 537,266 L 536,265 L 535,260 L 535,254 L 533,248 L 533,243 L 532,242 L 533,237 L 538,237 L 540,239 L 541,242 L 546,267 L 548,269 L 553,269 L 553,267 L 552,266 L 551,262 L 551,257 L 549,252 L 549,247 L 548,242 L 547,241 L 548,237 L 552,237 L 555,241 L 560,261 L 563,269 L 570,270 L 564,253 L 560,238 L 564,237 L 567,240 L 569,244 L 576,262 L 580,270 L 582,271 L 585,271 L 586,269 L 584,267 L 583,262 L 576,247 L 574,237 L 576,237 L 579,240 L 593,272 L 589,272 L 587,273 L 583,277 L 554,276 L 530,274 L 504,274 Z M 344,240 L 347,237 L 382,237 L 384,239 L 384,242 L 382,244 L 372,243 L 370,244 L 363,243 L 361,244 L 344,242 Z M 294,241 L 295,239 L 298,237 L 337,237 L 339,239 L 338,243 L 296,243 Z M 285,237 L 290,238 L 291,240 L 291,242 L 288,246 L 286,246 L 284,245 L 282,242 L 282,240 Z M 205,240 L 206,238 L 209,236 L 218,238 L 218,241 L 215,244 L 208,244 L 206,243 Z M 195,239 L 198,236 L 200,238 L 200,244 L 203,251 L 206,254 L 208,255 L 217,255 L 219,254 L 224,249 L 227,242 L 227,238 L 229,236 L 231,238 L 231,245 L 230,249 L 227,255 L 221,261 L 217,263 L 208,263 L 204,261 L 198,255 L 195,246 Z M 169,235 L 171,238 L 171,239 L 168,244 L 168,249 L 170,253 L 173,255 L 179,255 L 185,251 L 186,248 L 188,245 L 188,242 L 190,237 L 194,237 L 194,241 L 192,249 L 190,253 L 185,259 L 180,262 L 171,262 L 169,261 L 164,256 L 163,253 L 163,246 L 164,241 L 166,237 Z M 139,234 L 141,236 L 137,242 L 137,250 L 141,254 L 143,255 L 146,255 L 151,253 L 156,247 L 159,240 L 160,235 L 163,236 L 163,241 L 160,250 L 157,255 L 153,259 L 145,262 L 143,262 L 137,260 L 134,257 L 132,253 L 132,243 L 134,238 Z M 470,223 L 473,220 L 475,219 L 483,219 L 486,222 L 487,224 L 488,228 L 487,231 L 484,234 L 482,235 L 476,235 L 474,234 L 471,231 L 469,225 Z M 418,216 L 422,219 L 420,224 L 418,225 L 416,223 L 416,218 Z M 368,227 L 369,224 L 371,221 L 376,216 L 384,213 L 394,213 L 401,216 L 407,222 L 410,229 L 409,232 L 406,233 L 404,231 L 403,227 L 398,222 L 394,220 L 382,220 L 377,223 L 375,225 L 373,230 L 370,232 L 368,230 Z M 319,227 L 321,222 L 326,217 L 329,215 L 336,213 L 343,213 L 349,215 L 352,217 L 357,222 L 359,226 L 358,232 L 354,231 L 352,226 L 348,222 L 344,220 L 333,220 L 329,222 L 326,225 L 324,231 L 319,231 Z M 290,213 L 297,214 L 300,215 L 303,217 L 307,221 L 310,228 L 310,230 L 308,232 L 305,231 L 305,229 L 302,226 L 302,225 L 297,221 L 294,220 L 286,220 L 282,222 L 278,226 L 275,233 L 275,245 L 278,252 L 280,255 L 283,257 L 288,259 L 294,259 L 297,258 L 299,256 L 300,256 L 303,251 L 306,248 L 308,248 L 310,250 L 307,257 L 300,264 L 295,266 L 286,266 L 283,265 L 278,262 L 273,256 L 271,252 L 269,245 L 269,235 L 272,225 L 274,222 L 280,216 Z M 455,213 L 454,218 L 451,222 L 449,226 L 449,238 L 452,243 L 450,245 L 424,245 L 391,244 L 388,241 L 392,237 L 420,237 L 421,235 L 420,229 L 421,225 L 426,220 L 446,220 L 450,217 L 450,214 L 452,212 Z M 238,207 L 240,205 L 248,204 L 306,204 L 309,207 L 305,209 L 240,210 Z M 487,203 L 485,205 L 472,205 L 432,207 L 338,209 L 323,208 L 323,206 L 325,204 L 337,203 L 381,203 L 418,201 L 453,200 L 485,200 Z M 559,200 L 555,204 L 552,206 L 549,207 L 546,207 L 545,208 L 543,208 L 536,205 L 534,200 L 539,203 L 549,203 L 554,201 Z M 457,192 L 457,196 L 439,197 L 388,197 L 345,199 L 315,198 L 315,196 L 317,194 L 356,194 L 386,192 L 429,191 L 455,191 Z M 555,166 L 557,167 L 560,170 L 562,175 L 562,179 L 561,183 L 559,187 L 557,189 L 553,191 L 550,191 L 548,190 L 544,186 L 542,181 L 542,176 L 544,173 L 545,170 L 549,167 L 552,166 Z M 531,159 L 535,155 L 540,153 L 549,153 L 554,155 L 560,161 L 558,162 L 555,159 L 552,158 L 539,158 L 535,161 Z M 255,144 L 264,144 L 266,146 L 266,176 L 264,178 L 251,177 L 251,147 Z M 278,143 L 289,144 L 289,175 L 287,177 L 275,176 L 275,146 Z M 328,136 L 344,137 L 345,139 L 345,145 L 344,147 L 342,149 L 327,148 L 326,141 L 327,140 Z M 311,134 L 319,134 L 322,137 L 322,171 L 320,175 L 315,177 L 309,176 L 309,136 Z M 383,121 L 384,119 L 409,118 L 413,121 Z M 551,117 L 556,116 L 559,118 L 561,122 L 561,125 L 560,128 L 557,131 L 553,131 L 550,128 L 549,125 L 549,121 Z M 517,45 L 516,43 L 511,38 L 505,35 L 499,33 L 480,32 L 474,25 L 467,22 L 458,21 L 451,22 L 447,24 L 445,24 L 439,18 L 432,14 L 425,12 L 409,12 L 405,13 L 397,17 L 391,24 L 382,20 L 374,20 L 367,22 L 363,24 L 356,31 L 342,30 L 339,31 L 334,34 L 332,36 L 329,41 L 329,43 L 327,45 L 324,46 L 320,46 L 308,51 L 298,49 L 292,51 L 289,54 L 282,51 L 272,52 L 263,55 L 253,61 L 250,60 L 245,60 L 239,62 L 231,70 L 224,70 L 221,71 L 218,73 L 215,77 L 208,77 L 200,79 L 196,83 L 196,86 L 199,89 L 202,90 L 218,89 L 221,91 L 228,91 L 235,88 L 239,85 L 248,89 L 261,89 L 268,86 L 273,82 L 279,87 L 288,90 L 295,90 L 299,89 L 304,86 L 311,85 L 312,88 L 314,91 L 319,95 L 322,96 L 333,96 L 337,95 L 346,90 L 350,86 L 352,83 L 355,75 L 357,74 L 359,76 L 366,79 L 375,79 L 379,78 L 383,76 L 385,74 L 389,77 L 392,78 L 400,78 L 404,77 L 408,74 L 409,74 L 412,69 L 415,67 L 420,71 L 428,75 L 441,75 L 446,74 L 450,72 L 456,66 L 459,60 L 461,59 L 467,63 L 473,65 L 485,65 L 488,64 L 494,60 L 496,60 L 497,61 L 501,62 L 509,62 L 511,61 L 516,56 L 517,54 Z"/>
</svg>